<svg width="249" height="35" viewBox="0 0 249 35" fill="none" xmlns="http://www.w3.org/2000/svg">
<path d="M33.2256 14.9457C42.9837 15.5707 52.7418 16.0779 59.0447 16.0779C65.3476 16.0779 75.1057 15.5797 84.8638 14.9457L85.4805 0.172101C77.1734 0.0543478 67.9594 0 59.0447 0C50.13 0 40.9069 0.0543478 32.6089 0.172101L33.2256 14.9457Z" fill="#313E48"/>
<path d="M0.396984 12.473C0.650912 12.4912 15.8866 13.8046 31.6121 14.8462L31.0045 0.19043C17.1291 0.389705 6.12852 0.752024 3.99733 1.25927C0.523948 2.08355 0.0432969 4.80999 0.00702138 6.62159C-0.0111164 7.4821 -0.0111164 9.81905 0.224675 12.4459L0.396984 12.473Z" fill="#313E48"/>
<path d="M86.4697 14.8369C102.195 13.8043 117.431 12.4909 117.685 12.4637L117.866 12.4456C118.102 9.82784 118.102 7.49089 118.075 6.63038C118.039 4.81878 117.558 2.09233 114.084 1.26806C111.944 0.760813 100.953 0.398494 87.0773 0.199219L86.4697 14.8369Z" fill="#313E48"/>
<path d="M86.3691 16.4496L85.0723 31.7214C93.0438 30.3083 100.254 28.7956 103.228 28.0076C109.785 26.2685 113.812 24.3754 115.952 20.5891C116.868 18.9677 117.394 16.4949 117.702 14.0674C116.197 14.2033 101.496 15.4533 86.3691 16.4496Z" fill="#313E48"/>
<path d="M84.7556 16.5576C75.0337 17.1826 65.33 17.6808 59.0453 17.6808C52.7605 17.6808 43.0568 17.1826 33.335 16.5576L34.65 32.0105C43.8186 33.6047 53.6583 34.9996 59.0453 34.9996C64.4322 34.9996 74.2719 33.6047 83.4406 32.0105L84.7556 16.5576Z" fill="#313E48"/>
<path d="M31.7111 16.4494C16.5842 15.453 1.88357 14.203 0.387207 14.0762C0.68648 16.5037 1.22154 18.9765 2.1375 20.5979C4.26869 24.3841 8.30434 26.2773 14.8611 28.0164C17.8357 28.8044 25.0455 30.3081 33.0171 31.7302L31.7111 16.4494Z" fill="#313E48"/>
<path d="M133.111 24.6377C131.542 24.6377 130.272 23.3696 130.272 21.8025V10.3351C130.272 8.76812 131.542 7.5 133.111 7.5H152.799V10.4348H133.51V21.6938H149.552V17.5453H137.953V14.5833H152.799V24.6377H133.111Z" fill="#313E48"/>
<path d="M160.498 24.6377C158.929 24.6377 157.66 23.3696 157.66 21.8025V7.5H179.552V10.4348H160.897V14.5833H179.035V17.5362H160.897V21.6848H179.552V24.6377H160.498Z" fill="#313E48"/>
<path d="M213.298 24.6377C211.729 24.6377 210.459 23.3606 210.459 21.8026V7.48193H213.697V21.6848H229.83V24.6377H213.298Z" fill="#313E48"/>
<path d="M186.843 24.6377C185.275 24.6377 184.005 23.3696 184.005 21.8025V7.5H205.897V10.4348H187.242V14.5833H205.38V17.5362H187.242V21.6848H205.897V24.6377H186.843Z" fill="#313E48"/>
<path d="M234.483 24.6377V18.0707L223.872 7.48193H228.053L236.106 15.5164L244.15 7.48193H248.331L237.72 18.0707V24.6377H234.483Z" fill="#313E48"/>
</svg>
